<?xml version="1.0" standalone="no"?>
<!DOCTYPE svg PUBLIC "-//W3C//DTD SVG 20010904//EN"
 "http://www.w3.org/TR/2001/REC-SVG-20010904/DTD/svg10.dtd">
<svg version="1.0" xmlns="http://www.w3.org/2000/svg"
 width="105.000000pt" height="123.000000pt" viewBox="0 0 105.000000 123.000000"
 preserveAspectRatio="xMidYMid meet">

<g transform="translate(0.000000,123.000000) scale(0.100000,-0.100000)"
fill="#000000" stroke="none">
<path style="fill:black;stroke:white;stroke-width:1;" d="M420 1131 c-39 -6 -111 -41 -84 -41 5 0 15 5 21 11 23 23 173 29 199
9 20 -18 10 -24 -16 -10 -12 6 -29 8 -38 4 -9 -4 -35 -8 -57 -10 -52 -3 -134
-39 -109 -48 10 -4 21 0 29 11 11 15 31 18 109 20 56 1 96 -2 96 -7 0 -6 -5
-10 -11 -10 -5 0 -7 -4 -4 -10 4 -6 13 -5 24 2 11 7 26 8 37 3 17 -7 15 -9
-11 -15 -28 -7 -28 -8 11 -9 26 -1 47 -8 57 -19 22 -24 21 -29 -3 -35 -31 -8
-24 -24 9 -19 21 3 33 -2 45 -19 21 -31 20 -42 -4 -34 -21 7 -94 -4 -85 -13 3
-3 23 -5 44 -4 32 2 43 -2 60 -24 23 -29 29 -76 9 -70 -50 16 -67 16 -61 1 3
-9 12 -14 20 -11 22 9 53 -12 53 -34 0 -23 -10 -26 -28 -8 -10 10 -11 6 -6
-19 5 -25 2 -33 -14 -42 -28 -15 -30 -14 -25 13 4 17 -5 33 -31 59 -20 20 -36
40 -36 44 1 23 22 36 57 36 21 -1 32 1 25 4 -6 2 -10 8 -7 12 4 8 -35 4 -65
-5 -20 -7 -25 -2 -22 20 3 13 0 16 -10 10 -7 -4 -5 2 6 14 13 15 17 29 12 49
-12 52 -11 58 12 61 27 4 29 22 2 22 -11 0 -25 -9 -32 -19 -15 -25 -48 -10
-48 21 0 16 -3 18 -13 9 -8 -6 -18 -7 -23 -3 -5 4 -1 -2 9 -14 17 -20 16 -21
-8 -32 -38 -17 -55 -15 -64 10 -4 12 -10 17 -14 11 -4 -6 1 -21 11 -33 17 -21
21 -22 56 -10 20 6 48 9 61 6 26 -7 43 -42 27 -58 -8 -8 -9 -5 -6 9 3 12 0 24
-7 28 -7 5 -10 4 -5 -3 3 -6 1 -22 -6 -36 -8 -19 -17 -25 -30 -20 -29 9 -21
-5 10 -17 l27 -11 -29 -13 c-22 -9 -25 -13 -12 -18 8 -3 18 -2 21 3 10 16 33
-1 44 -31 6 -18 6 -27 1 -24 -6 4 -10 -1 -10 -9 0 -8 10 -18 23 -22 21 -7 21
-7 2 -14 -26 -10 -55 15 -56 49 0 26 0 26 -11 4 -6 -13 -17 -23 -24 -23 -7 0
-16 -5 -20 -12 -5 -8 -2 -9 11 -5 23 9 52 -12 33 -24 -9 -6 -7 -9 7 -9 33 0
45 -18 34 -50 l-10 -28 -39 22 c-26 13 -40 28 -40 41 -1 19 -1 19 -14 2 -13
-17 -15 -17 -29 3 -20 29 -11 58 24 76 16 8 29 17 29 19 0 6 -32 -6 -46 -16
-6 -5 -15 4 -23 26 -8 24 -16 32 -27 28 -12 -4 -11 -8 6 -20 19 -13 21 -22 15
-60 -4 -29 -2 -49 6 -59 15 -18 1 -18 -44 1 -56 23 -90 85 -47 85 14 0 20 -7
20 -22 0 -17 3 -19 12 -10 9 9 6 17 -12 37 -13 14 -19 25 -14 25 5 0 10 12 9
27 0 20 6 28 23 32 13 3 23 11 22 16 -2 15 29 18 45 5 8 -7 16 -24 16 -39 2
-25 2 -25 6 -2 3 13 15 35 28 49 13 14 21 30 18 35 -3 6 -12 -2 -20 -17 -16
-30 -39 -30 -36 1 3 23 -23 27 -32 5 -5 -13 -8 -12 -21 4 -9 10 -13 13 -9 7 3
-7 -6 -24 -21 -38 -27 -25 -44 -25 -44 0 0 9 -6 12 -15 8 -14 -5 -14 -7 0 -23
19 -21 19 -49 -1 -88 -8 -18 -12 -37 -8 -43 5 -8 1 -8 -15 0 -22 12 -51 60
-51 85 0 8 -5 18 -12 22 -7 5 -8 3 -3 -6 6 -10 4 -12 -8 -7 -14 5 -12 0 5 -25
18 -23 20 -32 10 -36 -10 -3 -8 -7 6 -16 11 -6 47 -29 79 -51 74 -51 105 -65
151 -66 20 0 31 -3 25 -6 -7 -2 -13 -9 -13 -14 0 -4 7 -6 15 -3 17 7 48 -14
40 -26 -5 -8 -80 10 -112 28 -12 6 -27 12 -34 12 -6 0 -27 14 -46 30 -18 17
-42 30 -53 30 -10 0 -22 5 -25 10 -4 6 -11 7 -17 4 -12 -8 28 -33 54 -34 9 0
25 -11 35 -24 11 -13 33 -27 51 -31 18 -3 30 -10 27 -15 -3 -5 15 -12 40 -16
41 -6 64 -19 53 -30 -6 -5 -136 21 -172 35 -21 9 -27 16 -23 31 6 23 -11 27
-19 5 -4 -8 -10 -12 -16 -9 -5 3 -7 13 -4 21 4 10 2 13 -7 10 -19 -7 -67 39
-67 63 0 10 8 21 18 23 13 4 11 5 -5 6 -23 1 -31 15 -14 25 5 3 0 23 -10 43
-24 47 -24 65 -1 86 37 33 54 23 84 -48 9 -22 17 -33 17 -25 0 8 -8 34 -19 58
-18 40 -16 48 13 43 4 0 7 4 7 9 0 14 43 12 59 -2 9 -9 12 -9 7 -1 -3 6 0 14
6 16 7 3 2 6 -12 6 -14 1 -32 5 -39 10 -12 8 -9 12 15 23 16 7 32 17 36 23 24
34 -44 -4 -79 -44 -15 -17 -22 -21 -23 -12 0 12 -2 12 -12 -1 -7 -9 -23 -19
-36 -23 -21 -6 -21 -5 -11 19 7 14 30 34 53 46 36 18 38 20 11 15 -35 -7 -85
-57 -85 -85 0 -10 -5 -22 -11 -26 -7 -4 -9 -25 -5 -58 3 -28 8 -76 10 -106 4
-44 10 -59 31 -75 14 -11 40 -32 58 -48 35 -30 124 -67 160 -67 45 0 59 -22
64 -96 7 -95 -5 -119 -64 -139 l-48 -15 45 4 c41 4 43 3 26 -10 -28 -20 -6
-18 23 3 24 16 24 16 18 -6 -4 -19 -3 -20 9 -10 11 9 18 9 26 1 19 -19 30 -14
18 9 -11 20 -11 20 16 3 38 -26 65 -28 34 -3 l-25 19 28 -10 c17 -6 35 -7 44
-1 12 6 7 10 -21 15 -64 12 -76 33 -76 134 0 120 9 132 99 132 73 0 121 23
121 58 0 15 -2 15 -10 2 -5 -8 -10 -11 -10 -5 0 5 -7 -1 -16 -13 -11 -16 -25
-22 -54 -22 -40 0 -61 14 -36 23 8 3 24 3 35 0 14 -4 21 -1 21 10 0 8 8 18 18
21 15 6 53 24 92 45 28 15 48 66 53 134 4 63 3 70 -24 103 -16 20 -29 44 -29
54 0 19 -30 50 -48 50 -7 0 -12 11 -12 24 0 19 -9 26 -60 44 -44 15 -62 17
-69 8 -6 -8 -3 -11 12 -13 75 -5 131 -42 97 -63 -12 -8 -11 -10 8 -10 31 0 60
-32 57 -64 -2 -14 1 -26 6 -26 20 0 7 -18 -15 -22 -20 -4 -27 1 -37 25 -10 22
-10 34 -1 48 7 11 8 19 3 19 -5 0 -11 -6 -14 -12 -7 -21 -58 32 -51 54 3 10 1
18 -5 18 -6 0 -11 -5 -11 -10 0 -14 -58 16 -92 47 -29 28 -82 36 -158 24z
m430 -254 c0 -15 -5 -18 -24 -15 -17 4 -23 1 -19 -9 3 -7 13 -12 22 -11 11 2
17 -6 19 -27 3 -38 -19 -80 -41 -79 -9 1 -17 -2 -17 -7 0 -5 6 -9 13 -9 8 0 7
-4 -3 -10 -25 -16 -28 -11 -18 30 9 36 18 45 41 41 4 0 7 5 7 13 0 9 -7 12
-19 9 -15 -4 -20 4 -29 38 -13 51 -8 62 24 56 21 -4 24 -1 19 17 -6 21 -6 21
9 2 9 -11 16 -28 16 -39z m-195 -167 c8 -12 -21 -60 -35 -60 -11 0 -14 53 -3
63 10 10 31 8 38 -3z"/>
<path d="M400 1045 c-8 -9 -9 -15 -2 -15 6 0 14 5 17 10 4 6 23 8 43 6 30 -5
32 -4 12 3 -38 14 -56 12 -70 -4z"/>
<path d="M977 679 c-33 -175 -109 -311 -248 -445 -75 -72 -190 -154 -217 -154
-8 0 -44 20 -81 44 -211 141 -335 320 -387 556 l-14 65 5 -65 c15 -197 116
-396 276 -544 75 -69 174 -136 202 -136 31 0 153 87 228 162 121 120 193 248
228 401 18 78 36 207 29 207 -2 0 -12 -41 -21 -91z"/>
</g>
</svg>
